# xmcd CD database file
#
# Track frame offsets:
#	180
#	20413
#	37969
#	54570
#	71830
#	105425
#	126726
#	150058
#	166720
#	183656
#	199575
#	221691
#
# Disc length: 3199 seconds
#
# Revision: 0
# Processed by: cddbd v1.5.2PL0 Copyright (c) Steve Scherf et al.
# Submitted via: CDex 1.70beta2
#
DISCID=9f0c7d0c
DTITLE=Marianne Langfeldt - Move the Blue
DYEAR=1997
DGENRE=Blues
TTITLE0=Season of the Witch
TTITLE1=Moonlight in Vermont
TTITLE2=Think
TTITLE3=Learning the Blues
TTITLE4=Kozmic Blues
TTITLE5=Fine and Mellow
TTITLE6=Don't Let Me Be Misunderstood
TTITLE7=Get It While You Can
TTITLE8=I Never Loved A Man
TTITLE9=Light My Fire
TTITLE10=Dr. Feelgood
TTITLE11=These Foolish Things
EXTD=YEAR: 1997
EXTT0=
EXTT1=
EXTT2=
EXTT3=
EXTT4=
EXTT5=
EXTT6=
EXTT7=
EXTT8=
EXTT9=
EXTT10=
EXTT11=
PLAYORDER=
